<svg width="1438" height="696" viewBox="0 0 1438 696" fill="none" xmlns="http://www.w3.org/2000/svg">
<g clip-path="url(#clip0_1958_2522)">
<rect width="1438" height="696" rx="30" fill="#011C2F"/>
<path d="M128.189 447.614C19.5632 429.692 -144.314 428.672 -219 431.852V711H1632V537.621V533.059C1632 411.942 1516.94 287.093 1070.85 392.862C912.788 430.338 866.974 468.456 659.064 479.137C481.433 488.262 293.709 474.922 128.189 447.614Z" fill="url(#paint0_linear_1958_2522)" fill-opacity="0.7"/>
<path d="M339.134 447.614C223.643 429.692 49.4068 428.672 -30 431.852V711H1938V537.621V533.059C1938 411.942 1815.67 287.093 1341.38 392.862C1173.33 430.338 1124.62 468.456 903.566 479.137C714.707 488.262 515.117 474.922 339.134 447.614Z" fill="url(#paint1_linear_1958_2522)"/>
</g>
<defs>
<linearGradient id="paint0_linear_1958_2522" x1="706.5" y1="392.49" x2="706.5" y2="711" gradientUnits="userSpaceOnUse">
<stop stop-color="#24998B"/>
<stop offset="1" stop-color="#096366"/>
</linearGradient>
<linearGradient id="paint1_linear_1958_2522" x1="954" y1="392.49" x2="954" y2="711" gradientUnits="userSpaceOnUse">
<stop stop-color="#24998B"/>
<stop offset="1" stop-color="#096366"/>
</linearGradient>
<clipPath id="clip0_1958_2522">
<rect width="1438" height="696" rx="30" fill="white"/>
</clipPath>
</defs>
</svg>
