<svg width="320" height="420" viewBox="0 0 320 420" fill="none" xmlns="http://www.w3.org/2000/svg">
<path d="M320 419.736C320 419.878 248.359 420 160.015 420C71.6717 420 0 419.878 0 419.736C0 419.595 71.6304 419.473 160.015 419.473C248.401 419.473 320 419.605 320 419.736Z" fill="#263238"/>
<path d="M250.195 295.743C234.256 284.815 230.645 264.527 231.274 246.286C231.377 243.247 231.037 240.026 232.512 237.363C233.987 234.699 237.433 232.865 240.209 234.142C242.509 235.205 243.51 237.839 244.8 240.016C246.52 242.917 249.042 245.28 252.073 246.833C254.044 247.846 256.489 248.453 258.439 247.4C261.121 245.951 261.43 242.336 261.41 239.297C261.41 233.645 261.375 228 261.307 222.362C261.121 219.335 261.435 216.298 262.235 213.368C263.195 210.492 265.33 207.828 268.25 207.017C271.17 206.207 274.812 207.878 275.472 210.836C275.585 212.089 275.616 213.347 275.565 214.604C275.647 215.87 276.246 217.257 277.453 217.642C278.66 218.027 279.918 217.146 280.847 216.255C284.025 213.216 286.191 209.256 288.203 205.346C290.215 201.437 292.185 197.416 295.074 194.083C297.963 190.751 301.955 188.108 306.423 187.854C310.89 187.601 315.543 190.295 316.657 194.549C317.771 198.803 315.244 203.148 312.53 206.602C308.436 211.729 303.609 216.249 298.2 220.022C297.144 220.588 296.301 221.473 295.796 222.544C295.126 224.57 297.075 226.596 299.108 227.234C301.409 227.983 303.905 227.751 306.33 228.034C308.754 228.318 311.333 229.351 312.252 231.579C313.51 234.678 310.869 237.92 308.28 240.047C303.08 244.301 297.176 247.648 290.823 249.942C288.554 250.752 286.17 251.472 284.334 253.031C282.498 254.591 281.404 257.316 282.508 259.453C283.612 261.59 286.449 262.269 288.832 261.833C291.215 261.397 293.33 260.142 295.6 259.301C299.84 257.731 305.308 258.015 307.98 261.61C308.808 262.849 309.332 264.259 309.511 265.73C309.69 267.201 309.519 268.693 309.012 270.088C307.98 272.864 306.39 275.409 304.339 277.573C297.581 285.499 288.802 291.521 278.897 295.024C269.065 298.367 259.955 299.278 250.185 295.764" fill="#FF725E"/>
<path d="M312.117 190.356C312.117 190.356 312.024 190.457 311.818 190.64L310.9 191.44C310.095 192.149 308.909 193.182 307.413 194.549C303.171 198.415 299.233 202.59 295.631 207.038C293.33 209.843 290.947 213.024 288.409 216.477C285.871 219.931 283.251 223.659 280.651 227.619C277.879 231.795 275.341 236.116 273.047 240.563C271.85 242.882 270.798 245.303 269.715 247.775L266.517 255.32C262.301 264.825 258.629 274.553 255.519 284.46C253.013 292.566 251.286 300.884 250.36 309.305C249.76 314.989 249.664 320.712 250.071 326.412C250.236 328.438 250.391 329.988 250.536 331.041C250.598 331.547 250.639 331.953 250.68 332.246V332.662C250.636 332.53 250.605 332.394 250.587 332.256C250.536 331.963 250.474 331.568 250.391 331.061C250.205 330.048 250.009 328.448 249.824 326.422C249.326 320.712 249.361 314.969 249.927 309.265C250.795 300.807 252.485 292.45 254.972 284.308C258.056 274.374 261.718 264.621 265.939 255.097L269.22 247.582C270.303 245.121 271.365 242.68 272.573 240.35C274.882 235.89 277.441 231.558 280.238 227.376C282.879 223.324 285.541 219.658 288.048 216.234C290.555 212.811 292.979 209.61 295.27 206.815C298.908 202.379 302.9 198.233 307.206 194.417C308.733 193.07 309.951 192.058 310.776 191.379L311.736 190.619C311.853 190.519 311.981 190.431 312.117 190.356Z" fill="#263238"/>
<path d="M272.707 240.33C272.562 239.913 272.461 239.482 272.408 239.044C272.243 238.203 272.057 237.018 271.841 235.479C271.397 232.44 270.943 228.277 270.458 223.669C269.973 219.06 269.426 214.887 268.972 211.879C268.735 210.38 268.529 209.175 268.384 208.334C268.272 207.904 268.213 207.462 268.209 207.018C268.387 207.423 268.515 207.848 268.591 208.284C268.818 209.114 269.076 210.309 269.364 211.818C269.953 214.857 270.53 218.989 271.015 223.608C271.5 228.227 271.913 232.278 272.233 235.428C272.387 236.846 272.521 238.051 272.625 239.014C272.705 239.448 272.732 239.89 272.707 240.33Z" fill="#263238"/>
<path d="M312.407 233.058C311.905 233.165 311.393 233.226 310.88 233.24C309.848 233.331 308.383 233.453 306.567 233.655C302.936 234.04 297.942 234.749 292.464 235.762C286.986 236.775 282.065 237.92 278.526 238.801C276.762 239.246 275.338 239.652 274.399 239.925C273.898 240.1 273.379 240.222 272.852 240.29C273.328 240.054 273.825 239.861 274.337 239.712C275.307 239.378 276.71 238.912 278.464 238.416C281.982 237.403 286.903 236.198 292.402 235.165C297.06 234.29 301.76 233.648 306.485 233.24C308.311 233.088 309.786 233.027 310.818 233.007C311.348 232.972 311.88 232.989 312.407 233.058Z" fill="#263238"/>
<path d="M255.477 283.599C255.367 283.453 255.277 283.293 255.209 283.123L254.528 281.715C253.94 280.49 253.145 278.677 252.196 276.459C250.277 272.002 247.832 265.763 245.232 258.835C242.632 251.907 240.239 245.668 238.423 241.161C237.536 238.973 236.803 237.18 236.256 235.843L235.679 234.395C235.599 234.228 235.543 234.05 235.514 233.868C235.624 234.015 235.714 234.175 235.782 234.344L236.463 235.752C237.041 236.978 237.845 238.791 238.794 241.009C240.713 245.465 243.159 251.704 245.758 258.632C248.358 265.56 250.752 271.799 252.568 276.307C253.455 278.494 254.187 280.287 254.724 281.624C254.961 282.201 255.157 282.637 255.312 283.073C255.392 283.24 255.447 283.417 255.477 283.599Z" fill="#263238"/>
<path d="M308.176 266.917C308.011 267.011 307.834 267.082 307.65 267.13L306.123 267.637L300.48 269.429C295.713 270.949 289.131 273.116 281.909 275.506C274.687 277.897 268.074 280.024 263.277 281.442C260.883 282.161 258.933 282.708 257.582 283.072L256.024 283.467C255.843 283.524 255.656 283.561 255.467 283.579C255.632 283.486 255.809 283.414 255.993 283.366L257.52 282.86L263.163 281.067C267.93 279.548 274.512 277.38 281.734 274.99C288.956 272.6 295.558 270.473 300.356 269.055C302.76 268.335 304.699 267.789 306.061 267.424L307.619 267.029C307.8 266.972 307.987 266.935 308.176 266.917Z" fill="#263238"/>
<path d="M286.678 21.2299L281.365 23.0935L279.085 16.2771C274.896 3.70757 261.546 -2.96712 249.279 1.27673C237.013 5.52057 230.482 19.3055 234.671 31.875L236.951 38.6915L231.617 40.5652C229.583 41.3397 227.931 42.8539 227.005 44.793C226.079 46.7321 225.95 48.947 226.644 50.9773L241.428 95.3301C241.735 96.3352 242.245 97.2694 242.927 98.0774C243.609 98.8853 244.449 99.5504 245.398 100.033C246.347 100.516 247.385 100.807 248.45 100.888C249.516 100.969 250.587 100.839 251.601 100.506L306.662 81.1704C308.723 80.3973 310.398 78.8697 311.335 76.909C312.272 74.9482 312.398 72.7071 311.687 70.657L296.892 26.3043C296.577 25.302 296.06 24.3723 295.371 23.5706C294.682 22.7689 293.836 22.1116 292.883 21.638C291.929 21.1644 290.889 20.8842 289.823 20.8141C288.757 20.744 287.687 20.8854 286.678 21.2299ZM244.709 28.3199C243.58 25.0516 243.782 21.4811 245.275 18.3563C246.767 15.2315 249.433 12.795 252.715 11.5572C254.335 11.0129 256.051 10.7946 257.759 10.9154C259.467 11.0362 261.133 11.4935 262.657 12.2602C264.182 13.0268 265.533 14.087 266.631 15.3775C267.728 16.668 268.55 18.1623 269.047 19.7714L271.316 26.5879L246.979 35.1364L244.709 28.3199ZM275.66 67.6793L279.436 79.0029C279.505 79.23 279.483 79.4745 279.373 79.6858C279.264 79.8971 279.076 80.0588 278.848 80.1373L273.555 81.9908C273.345 82.0482 273.12 82.0233 272.927 81.9213C272.735 81.8193 272.59 81.6483 272.524 81.4439L268.717 70.1709C266.617 70.0586 264.603 69.3194 262.944 68.0523C261.284 66.7852 260.059 65.0507 259.431 63.0809C258.534 60.4768 258.698 57.6329 259.888 55.1446C261.078 52.6563 263.203 50.7165 265.818 49.7315C267.108 49.2986 268.475 49.1252 269.835 49.2216C271.196 49.3181 272.522 49.6825 273.736 50.2931C274.95 50.9036 276.027 51.7479 276.901 52.7755C277.776 53.8032 278.431 54.9932 278.827 56.2746C279.491 58.2755 279.546 60.4231 278.985 62.4541C278.424 64.4852 277.272 66.3117 275.67 67.7096L275.66 67.6793Z" fill="#FF725E"/>
<path d="M281.127 22.9719C281.127 23.1137 271.275 26.7498 259.018 31.0747C246.762 35.3996 236.765 38.8736 236.713 38.7723C236.662 38.6711 246.566 35.0045 258.833 30.6695C271.099 26.3345 281.076 22.8402 281.127 22.9719Z" fill="#263238"/>
<path d="M292.827 24.8354C292.872 24.9233 292.91 25.0148 292.94 25.1089C293.023 25.3115 293.116 25.5748 293.239 25.8989C293.508 26.6383 293.879 27.6613 294.343 28.9375L298.305 40.2612C299.956 45.0621 301.926 50.7543 304.113 57.0745C305.145 60.2447 306.362 63.5466 307.497 67.0207C308.105 68.811 308.367 70.6966 308.271 72.5813C308.184 73.5614 307.9 74.5149 307.435 75.3869C306.94 76.2559 306.278 77.0229 305.486 77.6455C303.892 78.7878 302.122 79.6733 300.245 80.2688L294.931 82.1426L284.872 85.6774L267.839 91.633L256.336 95.6034L253.241 96.6162L252.415 96.8796C252.327 96.9181 252.233 96.942 252.137 96.9505C252.137 96.9505 252.219 96.9505 252.395 96.8289L253.199 96.5149L256.294 95.3704L267.736 91.238L284.738 85.1609L294.777 81.5956L300.09 79.7117C301.914 79.1405 303.632 78.2818 305.176 77.1695C305.913 76.5917 306.529 75.8798 306.992 75.0729C307.429 74.2664 307.692 73.3804 307.766 72.4698C307.861 70.654 307.609 68.8367 307.023 67.1119C305.909 63.6682 304.732 60.3359 303.67 57.1657C301.524 50.8353 299.543 45.1229 297.975 40.3219C296.407 35.521 295.086 31.6621 294.178 28.9476C293.745 27.6208 293.415 26.5877 293.146 25.8382L292.899 25.0279C292.868 24.9665 292.844 24.902 292.827 24.8354Z" fill="#263238"/>
<path d="M263.774 10.8685C263.774 10.8685 263.228 10.6052 262.217 10.2001C260.775 9.65644 259.251 9.35512 257.708 9.30875C255.421 9.23175 253.145 9.65378 251.043 10.5444C248.488 11.6535 246.304 13.4473 244.74 15.7201C243.166 17.9864 242.321 20.6646 242.315 23.4076C242.337 25.6559 242.684 27.8897 243.347 30.0418C243.883 31.8852 244.441 33.3539 244.812 34.3768C245.031 34.8964 245.21 35.4313 245.348 35.9771C245.055 35.4913 244.81 34.9792 244.616 34.4477C244.193 33.4349 243.584 31.9966 242.986 30.1431C242.251 27.9684 241.852 25.6982 241.799 23.4076C241.772 20.5609 242.636 17.7747 244.276 15.4264C245.894 13.0706 248.168 11.2213 250.827 10.0988C252.993 9.20325 255.341 8.80821 257.688 8.94413C259.264 9.02301 260.813 9.3834 262.258 10.0076C262.644 10.1826 263.017 10.3857 263.372 10.6153C263.519 10.6786 263.655 10.7641 263.774 10.8685Z" fill="#263238"/>
<path d="M264.249 50.5012C264.414 50.4032 264.586 50.3185 264.765 50.248C265.281 50.0192 265.816 49.8329 266.364 49.6909C267.234 49.4389 268.131 49.2893 269.036 49.2452C270.268 49.1803 271.5 49.3629 272.657 49.7821C275.298 50.6936 277.723 53.3372 278.92 56.872C279.494 58.769 279.494 60.7888 278.92 62.6858C278.283 64.7447 277.143 66.6191 275.598 68.145L275.66 67.8716C277.032 71.5685 278.528 75.5794 280.075 79.7625L280.168 80.0157L279.91 80.1068L277.548 80.8766L272.389 82.5681L272.131 82.6491L272.049 82.3959C270.635 78.2027 269.088 74.2931 267.922 70.4543L268.149 70.6265C266.132 70.4621 264.209 69.7189 262.619 68.4894C261.181 67.4018 260.001 66.0192 259.163 64.438C258.406 63.0358 258.03 61.4664 258.069 59.8802C258.117 58.2591 258.529 56.6684 259.277 55.222C260.024 53.7756 261.088 52.5094 262.392 51.514C262.929 51.0862 263.531 50.7444 264.177 50.5012C263.594 50.8406 263.029 51.2091 262.485 51.6052C261.052 52.7951 259.955 54.3261 259.297 56.0516C258.732 57.3528 258.468 58.7605 258.524 60.1736C258.579 61.5868 258.952 62.9705 259.617 64.2253C260.441 65.7464 261.592 67.0735 262.99 68.1147C264.507 69.2833 266.341 69.9878 268.262 70.1404H268.438L268.489 70.2923C269.624 74.0601 271.182 78.0001 272.616 82.2136L272.276 82.0515L277.434 80.36L279.786 79.5801L279.621 79.9245C278.084 75.7414 276.598 71.7204 275.237 68.0235V67.8716L275.36 67.75C276.86 66.2874 277.979 64.4911 278.621 62.5136C279.168 60.699 279.168 58.7676 278.621 56.953C277.496 53.5499 275.175 50.9671 272.657 50.0555C271.543 49.6337 270.353 49.4373 269.16 49.4782C268.269 49.4982 267.383 49.6172 266.519 49.8327C264.982 50.2074 264.259 50.5518 264.249 50.5012Z" fill="#263238"/>
<path d="M232.357 342.952L129.301 342.486C123.35 342.454 117.655 340.105 113.467 335.953C109.279 331.802 106.94 326.188 106.965 320.346L108.059 66.7174C108.071 63.8228 108.664 60.9588 109.804 58.2893C110.944 55.6198 112.609 53.1971 114.704 51.1597C116.798 49.1223 119.281 47.51 122.011 46.4152C124.74 45.3204 127.663 44.7644 130.611 44.7791L233.657 45.245C239.608 45.2745 245.304 47.6217 249.494 51.7712C253.684 55.9206 256.025 61.5331 256.003 67.3758L254.91 320.994C254.898 323.889 254.305 326.754 253.165 329.425C252.025 332.096 250.36 334.52 248.266 336.559C246.172 338.598 243.689 340.212 240.959 341.309C238.229 342.406 235.306 342.964 232.357 342.952Z" fill="#455A64"/>
<path d="M233.503 53.9657H213.529C212.877 53.9776 212.234 54.1154 211.637 54.3712C211.04 54.6271 210.499 54.996 210.047 55.4569C209.595 55.9177 209.24 56.4616 209.001 57.0573C208.763 57.653 208.647 58.2889 208.66 58.9287V62.4838C208.672 63.1231 208.556 63.7585 208.317 64.3537C208.079 64.9488 207.724 65.492 207.271 65.952C206.819 66.4121 206.279 66.78 205.681 67.0348C205.084 67.2896 204.441 67.4261 203.79 67.4367L164.854 67.2645C163.537 67.23 162.287 66.6837 161.38 65.7456C160.473 64.8074 159.982 63.5542 160.015 62.261V58.7059C160.049 57.4144 159.559 56.1626 158.654 55.2248C157.749 54.2869 156.502 53.7395 155.187 53.7024H148.161L130.674 53.6214C126.514 53.5971 122.515 55.1918 119.55 58.0564C116.586 60.921 114.899 64.822 114.858 68.9053L113.826 316.466C113.817 318.492 114.214 320.5 114.995 322.375C115.776 324.25 116.925 325.956 118.377 327.395C119.83 328.834 121.557 329.978 123.459 330.762C125.362 331.546 127.403 331.954 129.467 331.963L232.306 332.429C234.371 332.438 236.417 332.048 238.328 331.281C240.24 330.514 241.978 329.385 243.445 327.958C244.912 326.531 246.078 324.835 246.877 322.966C247.676 321.096 248.092 319.091 248.101 317.064L249.133 69.5029C249.158 65.4081 247.525 61.4712 244.594 58.5577C241.663 55.6442 237.674 53.9925 233.503 53.9657Z" fill="white"/>
<path d="M219.666 299.4L143.197 299.076C142.403 299.076 141.763 298.225 141.774 297.192L141.856 277.553C141.856 276.54 142.506 275.669 143.3 275.669L219.77 276.013C220.21 276.088 220.604 276.327 220.869 276.68C221.134 277.033 221.25 277.472 221.193 277.907L221.121 297.526C221.121 298.57 220.461 299.41 219.666 299.4Z" fill="#FF725E"/>
<path d="M166.451 289.553C166.029 289.553 165.622 289.485 165.232 289.349C164.847 289.208 164.549 289.03 164.337 288.813L164.573 288.349C164.774 288.544 165.042 288.71 165.378 288.845C165.72 288.975 166.077 289.04 166.451 289.04C166.809 289.04 167.099 288.997 167.321 288.91C167.549 288.818 167.714 288.696 167.817 288.544C167.926 288.393 167.98 288.225 167.98 288.04C167.98 287.818 167.915 287.639 167.785 287.504C167.66 287.368 167.495 287.262 167.289 287.186C167.083 287.105 166.855 287.035 166.606 286.975C166.357 286.915 166.107 286.853 165.858 286.788C165.608 286.718 165.378 286.625 165.167 286.512C164.961 286.398 164.793 286.249 164.663 286.064C164.538 285.875 164.475 285.628 164.475 285.324C164.475 285.043 164.549 284.785 164.695 284.552C164.847 284.313 165.077 284.124 165.386 283.983C165.695 283.836 166.091 283.763 166.573 283.763C166.893 283.763 167.21 283.809 167.525 283.901C167.839 283.988 168.11 284.11 168.338 284.267L168.135 284.747C167.891 284.584 167.63 284.465 167.354 284.389C167.083 284.313 166.82 284.275 166.565 284.275C166.224 284.275 165.942 284.322 165.72 284.414C165.497 284.506 165.332 284.631 165.224 284.788C165.121 284.94 165.069 285.113 165.069 285.308C165.069 285.53 165.131 285.709 165.256 285.845C165.386 285.98 165.554 286.086 165.76 286.162C165.972 286.238 166.202 286.306 166.451 286.365C166.701 286.425 166.947 286.49 167.191 286.56C167.441 286.631 167.668 286.723 167.874 286.837C168.086 286.945 168.254 287.092 168.378 287.276C168.509 287.46 168.574 287.701 168.574 288C168.574 288.276 168.498 288.534 168.346 288.772C168.194 289.005 167.961 289.195 167.647 289.341C167.338 289.482 166.939 289.553 166.451 289.553ZM169.885 289.504V283.812H170.486V289.504H169.885ZM172.338 289.504V283.812H172.834L176.762 288.756H176.502V283.812H177.095V289.504H176.599L172.68 284.56H172.94V289.504H172.338ZM181.449 289.553C181.016 289.553 180.614 289.482 180.246 289.341C179.883 289.195 179.566 288.992 179.294 288.731C179.029 288.471 178.82 288.165 178.668 287.813C178.522 287.46 178.449 287.075 178.449 286.658C178.449 286.241 178.522 285.856 178.668 285.503C178.82 285.151 179.032 284.845 179.303 284.584C179.574 284.324 179.891 284.124 180.254 283.983C180.623 283.836 181.024 283.763 181.457 283.763C181.891 283.763 182.287 283.831 182.645 283.966C183.008 284.102 183.317 284.308 183.572 284.584L183.198 284.967C182.959 284.728 182.696 284.557 182.409 284.454C182.121 284.351 181.812 284.3 181.482 284.3C181.129 284.3 180.804 284.36 180.506 284.479C180.213 284.593 179.956 284.758 179.734 284.975C179.517 285.186 179.346 285.436 179.221 285.723C179.102 286.005 179.042 286.316 179.042 286.658C179.042 286.994 179.102 287.306 179.221 287.593C179.346 287.88 179.517 288.132 179.734 288.349C179.956 288.561 180.213 288.726 180.506 288.845C180.804 288.959 181.127 289.016 181.474 289.016C181.799 289.016 182.105 288.967 182.393 288.87C182.685 288.772 182.954 288.607 183.198 288.374L183.539 288.829C183.268 289.068 182.951 289.249 182.588 289.374C182.224 289.493 181.845 289.553 181.449 289.553ZM182.962 288.756V286.658H183.539V288.829L182.962 288.756ZM189.663 289.553C188.937 289.553 188.365 289.344 187.947 288.927C187.53 288.509 187.321 287.891 187.321 287.073V283.812H187.923V287.048C187.923 287.72 188.075 288.216 188.378 288.536C188.682 288.856 189.11 289.016 189.663 289.016C190.222 289.016 190.652 288.856 190.956 288.536C191.26 288.216 191.411 287.72 191.411 287.048V283.812H191.997V287.073C191.997 287.891 191.788 288.509 191.371 288.927C190.959 289.344 190.39 289.553 189.663 289.553ZM193.81 289.504V283.812H195.94C196.423 283.812 196.838 283.891 197.185 284.048C197.531 284.2 197.797 284.422 197.981 284.715C198.171 285.002 198.266 285.352 198.266 285.764C198.266 286.165 198.171 286.512 197.981 286.804C197.797 287.092 197.531 287.314 197.185 287.471C196.838 287.628 196.423 287.707 195.94 287.707H194.143L194.412 287.422V289.504H193.81ZM194.412 287.471L194.143 287.178H195.924C196.493 287.178 196.924 287.056 197.217 286.812C197.515 286.563 197.664 286.213 197.664 285.764C197.664 285.308 197.515 284.956 197.217 284.706C196.924 284.457 196.493 284.332 195.924 284.332H194.143L194.412 284.048V287.471Z" fill="#E8E8E3"/>
<path d="M158.451 126.739L131.916 126.621L131.894 131.402L158.429 131.52L158.451 126.739Z" fill="#FF725E"/>
<path opacity="0.1" d="M158.451 126.739L131.916 126.621L131.894 131.402L158.429 131.52L158.451 126.739Z" fill="black"/>
<path d="M236.237 156.092C236.445 156.071 236.65 156.023 236.845 155.95C237.131 155.84 237.379 155.654 237.562 155.412C237.744 155.17 237.853 154.883 237.877 154.583C237.877 152.972 237.877 150.622 237.877 147.604C237.877 146.095 237.877 144.403 237.877 142.54C237.877 142.084 237.877 141.608 237.877 141.132C237.944 140.67 237.842 140.2 237.588 139.805C237.446 139.616 237.261 139.462 237.048 139.354C236.835 139.247 236.6 139.19 236.36 139.187H234.751H219.843L133.552 138.873C133.331 138.87 133.113 138.918 132.915 139.015C132.718 139.112 132.547 139.255 132.417 139.43C132.168 139.826 132.073 140.298 132.149 140.757C132.149 141.77 132.149 142.783 132.149 143.796C132.149 145.821 132.149 147.847 132.149 149.873C132.149 150.886 132.149 151.898 132.149 152.911C132.106 153.383 132.106 153.858 132.149 154.329C132.203 154.532 132.304 154.719 132.444 154.877C132.583 155.035 132.758 155.159 132.954 155.241C133.157 155.32 133.375 155.358 133.594 155.352H138.845L161.759 155.474L200.55 155.707L226.704 155.909L233.812 155.99H235.659C236.082 155.99 236.288 155.99 236.288 155.99H235.659H233.812H226.704H200.55L161.759 155.869L138.845 155.778H133.594C133.305 155.789 133.016 155.741 132.748 155.636C132.476 155.522 132.234 155.349 132.041 155.129C131.848 154.91 131.709 154.65 131.633 154.37C131.574 154.104 131.553 153.831 131.571 153.56V152.81C131.571 151.797 131.571 150.784 131.571 149.772C131.571 147.746 131.571 145.72 131.571 143.694C131.571 142.682 131.571 141.669 131.571 140.656C131.552 140.386 131.552 140.115 131.571 139.846C131.61 139.548 131.727 139.265 131.912 139.025C132.09 138.781 132.325 138.582 132.598 138.446C132.872 138.31 133.174 138.242 133.48 138.245L219.771 138.711L234.679 138.812H236.288C236.572 138.813 236.851 138.88 237.102 139.009C237.354 139.137 237.57 139.324 237.733 139.552C238.023 139.992 238.141 140.522 238.063 141.041C238.063 141.517 238.063 141.993 238.063 142.449C238.063 144.292 238.063 145.983 238.063 147.513C238.063 150.551 237.99 152.881 237.97 154.502C237.945 154.813 237.829 155.111 237.637 155.361C237.445 155.61 237.185 155.8 236.887 155.909C236.691 156.028 236.466 156.091 236.237 156.092Z" fill="#E0E0E0"/>
<path d="M188.418 143.958H139.887V148.424H188.418V143.958Z" fill="#FF725E"/>
<path opacity="0.2" d="M188.418 143.958H139.887V148.424H188.418V143.958Z" fill="white"/>
<path d="M158.269 170.351L131.734 170.233L131.712 175.014L158.247 175.132L158.269 170.351Z" fill="#FF725E"/>
<path opacity="0.1" d="M158.269 170.351L131.734 170.233L131.712 175.014L158.247 175.132L158.269 170.351Z" fill="black"/>
<path d="M235.565 199.705C235.773 199.68 235.98 199.642 236.184 199.593C236.472 199.503 236.737 199.354 236.961 199.154C237.185 198.955 237.363 198.711 237.483 198.439C237.646 198.03 237.71 197.589 237.669 197.152C237.669 196.666 237.669 196.14 237.669 195.552C237.669 194.377 237.669 193.04 237.669 191.501V185.069C237.718 184.603 237.614 184.135 237.37 183.732C237.116 183.319 236.715 183.013 236.245 182.871C235.732 182.781 235.208 182.754 234.688 182.79H219.842L133.85 182.476C133.387 182.477 132.941 182.643 132.594 182.943C132.247 183.243 132.022 183.657 131.962 184.107C131.962 185.069 131.962 186.133 131.962 187.145C131.962 189.171 131.962 191.197 131.962 193.223C131.962 194.235 131.962 195.248 131.962 196.261C131.924 196.734 131.944 197.211 132.024 197.679C132.153 198.09 132.418 198.446 132.777 198.692C133.158 198.929 133.606 199.043 134.056 199.016H135.49H138.472L161.303 199.127L199.961 199.36L226.021 199.563L233.109 199.644H226.021H199.961L161.283 199.603L138.451 199.522H133.964C133.405 199.555 132.852 199.409 132.385 199.107C131.916 198.788 131.573 198.319 131.415 197.78C131.323 197.266 131.295 196.742 131.333 196.221C131.333 195.208 131.333 194.195 131.333 193.182C131.333 191.156 131.333 189.131 131.333 187.105C131.333 186.092 131.333 185.079 131.333 184.066C131.408 183.487 131.696 182.955 132.142 182.569C132.588 182.183 133.162 181.97 133.757 181.97L219.749 182.436L234.595 182.547C235.148 182.514 235.702 182.551 236.245 182.658C236.782 182.83 237.234 183.191 237.514 183.671C237.781 184.117 237.897 184.635 237.845 185.15C237.845 185.626 237.845 186.092 237.845 186.558C237.845 188.391 237.845 190.073 237.845 191.622C237.845 193.172 237.845 194.478 237.845 195.674C237.845 196.251 237.845 196.788 237.845 197.284C237.882 197.737 237.808 198.192 237.628 198.611C237.494 198.89 237.3 199.138 237.06 199.337C236.82 199.537 236.538 199.683 236.235 199.766C236.01 199.784 235.783 199.763 235.565 199.705Z" fill="#E0E0E0"/>
<path d="M158.07 215.857L131.535 215.739L131.513 220.52L158.048 220.638L158.07 215.857Z" fill="#FF725E"/>
<path opacity="0.1" d="M158.07 215.857L131.535 215.739L131.513 220.52L158.048 220.638L158.07 215.857Z" fill="black"/>
<path d="M235.358 245.192C235.567 245.168 235.774 245.131 235.977 245.08C236.264 244.991 236.529 244.843 236.753 244.645C236.977 244.448 237.156 244.206 237.277 243.936C237.439 243.527 237.503 243.087 237.463 242.65C237.463 242.153 237.463 241.637 237.463 241.039C237.463 239.874 237.463 238.527 237.463 236.988V230.556C237.512 230.091 237.407 229.622 237.164 229.219C236.903 228.814 236.505 228.513 236.039 228.368C235.526 228.275 235.003 228.244 234.481 228.277H219.635L133.644 227.963C133.181 227.964 132.735 228.13 132.388 228.43C132.04 228.73 131.816 229.144 131.756 229.594C131.756 230.607 131.756 231.62 131.756 232.633C131.756 234.658 131.756 236.684 131.756 238.71C131.756 239.722 131.756 240.735 131.756 241.748C131.717 242.218 131.738 242.691 131.818 243.156C131.941 243.569 132.208 243.927 132.571 244.169C132.95 244.412 133.399 244.526 133.85 244.493H138.338L161.169 244.615L199.827 244.848L225.887 245.05L232.975 245.131H225.887H199.827L161.169 245.02L138.338 244.929H133.85C133.292 244.966 132.737 244.819 132.272 244.513C131.802 244.194 131.46 243.725 131.302 243.186C131.209 242.672 131.182 242.148 131.219 241.627C131.219 240.614 131.219 239.601 131.219 238.588C131.219 236.562 131.219 234.537 131.219 232.511C131.219 231.498 131.219 230.485 131.219 229.422C131.292 228.844 131.578 228.311 132.023 227.925C132.467 227.539 133.04 227.326 133.634 227.325L219.625 227.791L234.471 227.903C235.024 227.869 235.579 227.907 236.122 228.014C236.658 228.186 237.11 228.547 237.391 229.027C237.658 229.473 237.773 229.991 237.721 230.506C237.721 230.982 237.721 231.458 237.721 231.913C237.721 233.747 237.721 235.428 237.721 236.978C237.721 238.527 237.721 239.834 237.721 241.029C237.721 241.606 237.721 242.143 237.721 242.64C237.761 243.093 237.686 243.548 237.504 243.966C237.37 244.246 237.177 244.494 236.936 244.693C236.696 244.892 236.415 245.038 236.112 245.121C235.87 245.202 235.612 245.227 235.358 245.192Z" fill="#E0E0E0"/>
<path d="M187.382 188.834L138.852 188.618L138.831 193.084L187.361 193.3L187.382 188.834Z" fill="#FF725E"/>
<path opacity="0.2" d="M187.382 188.834L138.852 188.618L138.831 193.084L187.361 193.3L187.382 188.834Z" fill="white"/>
<path d="M143.239 236.927C143.209 237.335 143.057 237.724 142.803 238.048C142.549 238.371 142.204 238.615 141.81 238.748C141.417 238.88 140.992 238.897 140.589 238.795C140.186 238.693 139.823 238.477 139.544 238.175C139.264 237.872 139.082 237.495 139.019 237.091C138.956 236.687 139.015 236.274 139.188 235.903C139.362 235.532 139.643 235.219 139.996 235.003C140.35 234.787 140.76 234.678 141.176 234.689C141.75 234.72 142.289 234.973 142.676 235.392C143.062 235.811 143.264 236.363 143.239 236.927Z" fill="#FF725E"/>
<path d="M149.812 236.957C149.832 237.243 149.792 237.529 149.695 237.799C149.598 238.069 149.445 238.316 149.246 238.526C149.047 238.735 148.806 238.902 148.539 239.016C148.272 239.13 147.983 239.189 147.692 239.189C147.4 239.189 147.112 239.13 146.844 239.016C146.577 238.902 146.336 238.735 146.137 238.526C145.939 238.316 145.786 238.069 145.688 237.799C145.591 237.529 145.551 237.243 145.572 236.957C145.551 236.672 145.591 236.385 145.688 236.115C145.786 235.846 145.939 235.598 146.137 235.389C146.336 235.18 146.577 235.013 146.844 234.899C147.112 234.784 147.4 234.726 147.692 234.726C147.983 234.726 148.272 234.784 148.539 234.899C148.806 235.013 149.047 235.18 149.246 235.389C149.445 235.598 149.598 235.846 149.695 236.115C149.792 236.385 149.832 236.672 149.812 236.957Z" fill="#FF725E"/>
<path d="M156.393 236.988C156.363 237.395 156.211 237.785 155.957 238.108C155.703 238.432 155.358 238.675 154.965 238.808C154.571 238.941 154.147 238.957 153.744 238.856C153.341 238.754 152.977 238.538 152.698 238.235C152.419 237.932 152.236 237.555 152.173 237.152C152.11 236.748 152.169 236.335 152.343 235.964C152.516 235.592 152.797 235.28 153.151 235.064C153.504 234.848 153.914 234.738 154.33 234.749C154.904 234.783 155.441 235.037 155.827 235.455C156.213 235.874 156.416 236.424 156.393 236.988Z" fill="#FF725E"/>
<path d="M162.966 237.018C162.935 237.426 162.784 237.816 162.53 238.139C162.276 238.463 161.931 238.706 161.537 238.839C161.144 238.972 160.719 238.988 160.316 238.886C159.913 238.784 159.549 238.569 159.27 238.266C158.991 237.963 158.808 237.586 158.745 237.182C158.682 236.779 158.741 236.366 158.915 235.994C159.089 235.623 159.37 235.31 159.723 235.094C160.076 234.879 160.486 234.769 160.902 234.78C161.476 234.814 162.013 235.067 162.399 235.486C162.785 235.904 162.988 236.455 162.966 237.018Z" fill="#FF725E"/>
<path d="M169.537 237.039C169.508 237.447 169.358 237.837 169.105 238.162C168.853 238.487 168.508 238.732 168.114 238.867C167.721 239.001 167.296 239.019 166.892 238.918C166.489 238.817 166.124 238.602 165.844 238.3C165.563 237.997 165.38 237.62 165.316 237.216C165.252 236.812 165.311 236.398 165.484 236.026C165.658 235.655 165.939 235.341 166.293 235.125C166.646 234.909 167.057 234.799 167.473 234.81C168.045 234.844 168.581 235.096 168.966 235.513C169.352 235.929 169.557 236.476 169.537 237.039Z" fill="#FF725E"/>
<path d="M176.119 237.069C176.091 237.475 175.942 237.864 175.692 238.188C175.441 238.512 175.1 238.758 174.709 238.894C174.319 239.03 173.896 239.051 173.494 238.954C173.091 238.857 172.726 238.647 172.443 238.35C172.161 238.052 171.973 237.68 171.903 237.279C171.834 236.878 171.885 236.465 172.051 236.093C172.216 235.72 172.49 235.403 172.837 235.18C173.184 234.958 173.589 234.84 174.004 234.841C174.585 234.862 175.134 235.108 175.53 235.526C175.927 235.944 176.138 236.499 176.119 237.069Z" fill="#FF725E"/>
<path d="M182.691 237.099C182.711 237.385 182.671 237.672 182.574 237.941C182.477 238.211 182.324 238.458 182.125 238.668C181.926 238.877 181.685 239.044 181.418 239.158C181.151 239.272 180.862 239.331 180.571 239.331C180.279 239.331 179.991 239.272 179.723 239.158C179.456 239.044 179.215 238.877 179.016 238.668C178.817 238.458 178.665 238.211 178.567 237.941C178.47 237.672 178.43 237.385 178.45 237.099C178.43 236.814 178.47 236.527 178.567 236.257C178.665 235.988 178.817 235.74 179.016 235.531C179.215 235.322 179.456 235.155 179.723 235.041C179.991 234.927 180.279 234.868 180.571 234.868C180.862 234.868 181.151 234.927 181.418 235.041C181.685 235.155 181.926 235.322 182.125 235.531C182.324 235.74 182.477 235.988 182.574 236.257C182.671 236.527 182.711 236.814 182.691 237.099Z" fill="#FF725E"/>
<path d="M189.263 237.13C189.235 237.536 189.087 237.925 188.836 238.249C188.586 238.573 188.244 238.818 187.854 238.954C187.463 239.09 187.041 239.111 186.638 239.015C186.235 238.918 185.87 238.708 185.588 238.41C185.305 238.113 185.118 237.74 185.048 237.339C184.978 236.938 185.029 236.526 185.195 236.153C185.361 235.78 185.634 235.463 185.981 235.241C186.328 235.018 186.734 234.9 187.148 234.901C187.729 234.922 188.278 235.169 188.675 235.587C189.071 236.004 189.283 236.559 189.263 237.13Z" fill="#FF725E"/>
<path d="M195.835 237.16C195.807 237.568 195.657 237.959 195.404 238.284C195.151 238.609 194.807 238.854 194.413 238.988C194.02 239.123 193.595 239.141 193.191 239.04C192.787 238.939 192.423 238.724 192.143 238.421C191.862 238.119 191.679 237.742 191.615 237.338C191.551 236.933 191.61 236.52 191.783 236.148C191.957 235.776 192.238 235.463 192.592 235.247C192.945 235.03 193.356 234.921 193.772 234.932C194.344 234.966 194.88 235.218 195.265 235.634C195.651 236.05 195.855 236.598 195.835 237.16Z" fill="#FF725E"/>
<g opacity="0.2">
<path d="M143.239 236.927C143.209 237.335 143.057 237.724 142.803 238.048C142.549 238.371 142.204 238.615 141.81 238.748C141.417 238.88 140.992 238.897 140.589 238.795C140.186 238.693 139.823 238.477 139.544 238.175C139.264 237.872 139.082 237.495 139.019 237.091C138.956 236.687 139.015 236.274 139.188 235.903C139.362 235.532 139.643 235.219 139.996 235.003C140.35 234.787 140.76 234.678 141.176 234.689C141.75 234.72 142.289 234.973 142.676 235.392C143.062 235.811 143.264 236.363 143.239 236.927Z" fill="white"/>
<path d="M149.812 236.957C149.832 237.243 149.792 237.529 149.695 237.799C149.598 238.069 149.445 238.316 149.246 238.526C149.047 238.735 148.806 238.902 148.539 239.016C148.272 239.13 147.983 239.189 147.692 239.189C147.4 239.189 147.112 239.13 146.844 239.016C146.577 238.902 146.336 238.735 146.137 238.526C145.939 238.316 145.786 238.069 145.688 237.799C145.591 237.529 145.551 237.243 145.572 236.957C145.551 236.672 145.591 236.385 145.688 236.115C145.786 235.846 145.939 235.598 146.137 235.389C146.336 235.18 146.577 235.013 146.844 234.899C147.112 234.784 147.4 234.726 147.692 234.726C147.983 234.726 148.272 234.784 148.539 234.899C148.806 235.013 149.047 235.18 149.246 235.389C149.445 235.598 149.598 235.846 149.695 236.115C149.792 236.385 149.832 236.672 149.812 236.957Z" fill="white"/>
<path d="M156.393 236.988C156.363 237.395 156.211 237.785 155.957 238.108C155.703 238.432 155.358 238.675 154.965 238.808C154.571 238.941 154.147 238.957 153.744 238.856C153.341 238.754 152.977 238.538 152.698 238.235C152.419 237.932 152.236 237.555 152.173 237.152C152.11 236.748 152.169 236.335 152.343 235.964C152.516 235.592 152.797 235.28 153.151 235.064C153.504 234.848 153.914 234.738 154.33 234.749C154.904 234.783 155.441 235.037 155.827 235.455C156.213 235.874 156.416 236.424 156.393 236.988Z" fill="white"/>
<path d="M162.966 237.018C162.935 237.426 162.784 237.816 162.53 238.139C162.276 238.463 161.931 238.706 161.537 238.839C161.144 238.972 160.719 238.988 160.316 238.886C159.913 238.784 159.549 238.569 159.27 238.266C158.991 237.963 158.808 237.586 158.745 237.182C158.682 236.779 158.741 236.366 158.915 235.994C159.089 235.623 159.37 235.31 159.723 235.094C160.076 234.879 160.486 234.769 160.902 234.78C161.476 234.814 162.013 235.067 162.399 235.486C162.785 235.904 162.988 236.455 162.966 237.018Z" fill="white"/>
<path d="M169.537 237.039C169.508 237.447 169.358 237.837 169.105 238.162C168.853 238.487 168.508 238.732 168.114 238.867C167.721 239.001 167.296 239.019 166.892 238.918C166.489 238.817 166.124 238.602 165.844 238.3C165.563 237.997 165.38 237.62 165.316 237.216C165.252 236.812 165.311 236.398 165.484 236.026C165.658 235.655 165.939 235.341 166.293 235.125C166.646 234.909 167.057 234.799 167.473 234.81C168.045 234.844 168.581 235.096 168.966 235.513C169.352 235.929 169.557 236.476 169.537 237.039Z" fill="white"/>
<path d="M176.119 237.069C176.091 237.475 175.942 237.864 175.692 238.188C175.441 238.512 175.1 238.758 174.709 238.894C174.319 239.03 173.896 239.051 173.494 238.954C173.091 238.857 172.726 238.647 172.443 238.35C172.161 238.052 171.973 237.68 171.903 237.279C171.834 236.878 171.885 236.465 172.051 236.093C172.216 235.72 172.49 235.403 172.837 235.18C173.184 234.958 173.589 234.84 174.004 234.841C174.585 234.862 175.134 235.108 175.53 235.526C175.927 235.944 176.138 236.499 176.119 237.069Z" fill="white"/>
<path d="M182.691 237.099C182.711 237.385 182.671 237.672 182.574 237.941C182.477 238.211 182.324 238.458 182.125 238.668C181.926 238.877 181.685 239.044 181.418 239.158C181.151 239.272 180.862 239.331 180.571 239.331C180.279 239.331 179.991 239.272 179.723 239.158C179.456 239.044 179.215 238.877 179.016 238.668C178.817 238.458 178.665 238.211 178.567 237.941C178.47 237.672 178.43 237.385 178.45 237.099C178.43 236.814 178.47 236.527 178.567 236.257C178.665 235.988 178.817 235.74 179.016 235.531C179.215 235.322 179.456 235.155 179.723 235.041C179.991 234.927 180.279 234.868 180.571 234.868C180.862 234.868 181.151 234.927 181.418 235.041C181.685 235.155 181.926 235.322 182.125 235.531C182.324 235.74 182.477 235.988 182.574 236.257C182.671 236.527 182.711 236.814 182.691 237.099Z" fill="white"/>
<path d="M189.263 237.13C189.235 237.536 189.087 237.925 188.836 238.249C188.586 238.573 188.244 238.818 187.854 238.954C187.463 239.09 187.041 239.111 186.638 239.015C186.235 238.918 185.87 238.708 185.588 238.41C185.305 238.113 185.118 237.74 185.048 237.339C184.978 236.938 185.029 236.526 185.195 236.153C185.361 235.78 185.634 235.463 185.981 235.241C186.328 235.018 186.734 234.9 187.148 234.901C187.729 234.922 188.278 235.169 188.675 235.587C189.071 236.004 189.283 236.559 189.263 237.13Z" fill="white"/>
<path d="M195.835 237.16C195.807 237.568 195.657 237.959 195.404 238.284C195.151 238.609 194.807 238.854 194.413 238.988C194.02 239.123 193.595 239.141 193.191 239.04C192.787 238.939 192.423 238.724 192.143 238.421C191.862 238.119 191.679 237.742 191.615 237.338C191.551 236.933 191.61 236.52 191.783 236.148C191.957 235.776 192.238 235.463 192.592 235.247C192.945 235.03 193.356 234.921 193.772 234.932C194.344 234.966 194.88 235.218 195.265 235.634C195.651 236.05 195.855 236.598 195.835 237.16Z" fill="white"/>
</g>
<path d="M186.499 90.9448C187.216 90.6349 187.824 90.125 188.247 89.4785C188.671 88.832 188.892 88.0774 188.882 87.3087C188.909 86.8089 188.832 86.3091 188.655 85.8396C188.479 85.3701 188.207 84.9408 187.856 84.5778C187.505 84.2148 187.083 83.9257 186.614 83.7281C186.146 83.5306 185.642 83.4287 185.132 83.4287C184.622 83.4287 184.118 83.5306 183.649 83.7281C183.181 83.9257 182.759 84.2148 182.408 84.5778C182.057 84.9408 181.785 85.3701 181.609 85.8396C181.432 86.3091 181.355 86.8089 181.382 87.3087C181.366 88.0851 181.585 88.8487 182.011 89.5031C182.437 90.1574 183.051 90.6732 183.775 90.9853C177.998 91.8361 178.256 97.9942 178.256 97.9942L191.915 98.055C191.915 98.055 192.235 91.7855 186.499 90.9448Z" fill="#FF725E"/>
<path opacity="0.1" d="M186.499 90.9448C187.216 90.6349 187.824 90.125 188.247 89.4785C188.671 88.832 188.892 88.0774 188.882 87.3087C188.909 86.8089 188.832 86.3091 188.655 85.8396C188.479 85.3701 188.207 84.9408 187.856 84.5778C187.505 84.2148 187.083 83.9257 186.614 83.7281C186.146 83.5306 185.642 83.4287 185.132 83.4287C184.622 83.4287 184.118 83.5306 183.649 83.7281C183.181 83.9257 182.759 84.2148 182.408 84.5778C182.057 84.9408 181.785 85.3701 181.609 85.8396C181.432 86.3091 181.355 86.8089 181.382 87.3087C181.366 88.0851 181.585 88.8487 182.011 89.5031C182.437 90.1574 183.051 90.6732 183.775 90.9853C177.998 91.8361 178.256 97.9942 178.256 97.9942L191.915 98.055C191.915 98.055 192.235 91.7855 186.499 90.9448Z" fill="black"/>
<path d="M208.695 102.027L160.01 101.81L159.983 107.522L208.668 107.739L208.695 102.027Z" fill="#FF725E"/>
<path opacity="0.2" d="M208.695 102.027L160.01 101.81L159.983 107.522L208.668 107.739L208.695 102.027Z" fill="white"/>
<path d="M29.7123 131.631H29.2274L27.8243 131.732C27.065 131.777 26.3099 131.875 25.5649 132.026C25.0823 132.092 24.6036 132.184 24.1308 132.299L22.5317 132.735C19.8099 133.555 17.2419 134.803 14.9281 136.432C11.8711 138.61 9.31844 141.399 7.43803 144.616C6.33281 146.47 5.45329 148.445 4.81754 150.5C4.14951 152.734 3.76488 155.041 3.67236 157.367C3.61088 158.59 3.63155 159.815 3.73426 161.034C3.73426 161.652 3.90965 162.27 3.99219 162.898C4.06161 163.531 4.18235 164.157 4.35328 164.771C5.281 168.836 7.16337 172.631 9.85024 175.854C12.5371 179.078 15.9541 181.64 19.8287 183.337C22.6329 184.525 25.6386 185.188 28.6909 185.292C31.8435 185.462 34.9992 185.018 37.9761 183.985L38.884 183.651H39.0078L39.111 183.712L52.1206 190.194L51.7389 190.518C50.3461 186.284 49.0049 182.182 47.705 178.242V178.09L47.8185 177.979C50.9744 174.858 53.3172 171.037 54.6483 166.838C55.8538 162.999 56.2057 158.951 55.68 154.967C55.2124 151.427 54.0529 148.008 52.2651 144.899C50.724 142.229 48.736 139.832 46.3844 137.809C44.4443 136.208 42.2969 134.867 39.9983 133.819C38.2589 133.082 36.4475 132.522 34.5922 132.147L32.5288 131.813L31.0328 131.702L30.125 131.641H29.8154C29.9183 131.63 30.0221 131.63 30.125 131.641H31.0432L32.5391 131.702L34.6025 131.996C36.4809 132.343 38.3171 132.883 40.0808 133.606C42.419 134.641 44.605 135.98 46.5805 137.586C48.9753 139.6 51.0054 141.997 52.5849 144.676C54.4234 147.819 55.6185 151.283 56.103 154.876C56.6723 158.921 56.345 163.039 55.1435 166.949C53.8038 171.235 51.4247 175.138 48.2105 178.323L48.2724 178.06C49.5724 182 50.9239 186.102 52.327 190.326L52.523 190.944L51.9349 190.65L38.9253 184.178H39.1523L38.2237 184.512C35.1895 185.56 31.9754 186.014 28.7631 185.849C25.645 185.732 22.5765 185.045 19.7152 183.823C14.2572 181.528 9.71624 177.54 6.78807 172.469C5.44059 170.127 4.45653 167.601 3.86838 164.974C3.70732 164.344 3.58672 163.705 3.50729 163.06C3.42475 162.422 3.29064 161.794 3.25969 161.166C2.98047 157.562 3.36846 153.938 4.40486 150.47C5.05644 148.386 5.96048 146.387 7.09758 144.514C9.02284 141.269 11.6287 138.462 14.7424 136.28C17.0943 134.647 19.7054 133.408 22.4698 132.613L24.0895 132.208C24.5663 132.1 25.0484 132.015 25.5339 131.955C26.2867 131.818 27.0488 131.737 27.814 131.712L29.2274 131.661C29.3881 131.64 29.5501 131.63 29.7123 131.631Z" fill="#FF725E"/>
<path d="M35.5934 155.251H33.6848L29.5581 149.559V145.821C29.5581 145.821 26.6074 145.639 26.9582 150.531C27.309 155.423 26.9582 154.177 26.9582 154.177C26.9582 154.177 20.6958 154.177 20.18 154.734C19.6641 155.291 19.6332 161.227 19.561 164.539C19.5214 165.337 19.7548 166.126 20.2239 166.779C20.6931 167.432 21.3712 167.913 22.1505 168.144C22.3689 168.204 22.5944 168.235 22.8211 168.236C24.3893 168.236 32.3643 166.99 32.3643 166.99H35.6553L35.5934 155.251Z" fill="#FF725E"/>
<path d="M41.0515 154.248L39.8754 167.05H36.6152V154.511L41.0515 154.248Z" fill="#FF725E"/>
<path d="M79.9343 414.885V406.225L64.1185 406.113L63.9844 419.209L64.9645 419.28C69.3285 419.554 87.1665 419.959 90.0965 419.068C93.3567 418.075 79.9343 414.885 79.9343 414.885Z" fill="#FF725E"/>
<path d="M90.4671 418.257C90.4671 418.399 84.5452 418.521 77.2511 418.521C69.9571 418.521 64.0352 418.399 64.0352 418.257C64.0352 418.116 69.9571 417.994 77.2511 417.994C84.5452 417.994 90.4671 418.116 90.4671 418.257Z" fill="#263238"/>
<path d="M80.2138 416.657C80.0797 416.587 80.2138 416.131 80.5336 415.645C80.8534 415.158 81.2867 414.956 81.3899 415.057C81.4931 415.158 81.2764 415.543 80.9669 415.959C80.6574 416.374 80.3479 416.728 80.2138 416.657Z" fill="#263238"/>
<path d="M81.2238 417.224C81.0794 417.224 81.1516 416.657 81.4611 416.12C81.7706 415.584 82.1833 415.259 82.2968 415.34C82.4103 415.422 82.2246 415.877 81.9357 416.353C81.6468 416.829 81.3579 417.275 81.2238 417.224Z" fill="#263238"/>
<path d="M68.8025 418.217C68.7406 418.217 68.5033 418.035 68.1629 417.65C67.7472 417.155 67.2843 416.701 66.7804 416.293C66.2848 415.904 65.6945 415.649 65.0678 415.553C64.5829 415.492 64.2734 415.553 64.2424 415.492C64.2115 415.432 64.5107 415.219 65.0781 415.178C65.8269 415.163 66.5574 415.407 67.1415 415.867C67.6887 416.305 68.1501 416.837 68.5033 417.437C68.7406 417.883 68.8644 418.176 68.8025 418.217Z" fill="#263238"/>
<path d="M80.2642 415.027C80.3364 415.148 80.0681 415.452 79.6142 415.614C79.1603 415.776 78.7579 415.715 78.7373 415.614C78.7166 415.513 79.0365 415.3 79.4285 415.158C79.8205 415.016 80.1816 414.905 80.2642 415.027Z" fill="#263238"/>
<path d="M80.0176 414.186C80.0176 414.338 79.605 414.459 79.0685 414.47C78.532 414.48 78.109 414.358 78.1193 414.216C78.1296 414.075 78.5526 413.943 79.0685 413.933C79.5843 413.923 79.997 414.044 80.0176 414.186Z" fill="#263238"/>
<path d="M118.882 414.885V406.225L103.066 406.113L102.932 419.078L103.912 419.149C108.276 419.422 126.124 419.959 129.044 419.068C132.304 418.075 118.882 414.885 118.882 414.885Z" fill="#FF725E"/>
<path d="M129.414 418.278C129.414 418.42 123.502 418.541 116.198 418.541C108.893 418.541 102.992 418.42 102.992 418.278C102.992 418.136 108.904 418.015 116.198 418.015C123.492 418.015 129.414 418.136 129.414 418.278Z" fill="#263238"/>
<path d="M119.159 416.657C119.035 416.587 119.159 416.131 119.478 415.645C119.798 415.158 120.232 414.956 120.335 415.057C120.438 415.158 120.221 415.543 119.912 415.959C119.602 416.374 119.293 416.728 119.159 416.657Z" fill="#263238"/>
<path d="M120.17 417.224C120.036 417.224 120.098 416.657 120.418 416.12C120.737 415.584 121.14 415.259 121.253 415.34C121.367 415.422 121.171 415.877 120.882 416.353C120.593 416.829 120.314 417.275 120.17 417.224Z" fill="#263238"/>
<path d="M107.748 418.217C107.686 418.217 107.459 418.035 107.108 417.65C106.693 417.155 106.23 416.701 105.726 416.293C105.23 415.904 104.64 415.649 104.013 415.553C103.539 415.492 103.219 415.553 103.188 415.492C103.157 415.432 103.456 415.219 104.023 415.178C104.772 415.163 105.503 415.407 106.087 415.867C106.637 416.302 107.099 416.835 107.449 417.437C107.686 417.883 107.81 418.176 107.748 418.217Z" fill="#263238"/>
<path d="M119.211 415.027C119.284 415.148 119.015 415.452 118.561 415.614C118.108 415.776 117.705 415.715 117.685 415.614C117.664 415.513 117.984 415.3 118.376 415.158C118.768 415.016 119.129 414.905 119.211 415.027Z" fill="#263238"/>
<path d="M118.984 414.186C118.984 414.338 118.571 414.459 118.035 414.47C117.498 414.48 117.086 414.358 117.096 414.216C117.106 414.075 117.519 413.943 118.035 413.933C118.551 413.923 118.984 414.044 118.984 414.186Z" fill="#263238"/>
<path d="M177.151 157.722C176.738 157.306 175.717 157.509 175.717 157.509C175.819 156.926 175.819 156.33 175.717 155.747C175.531 155.179 174.231 155.291 174.231 155.291C174.171 154.813 174.171 154.33 174.231 153.852C174.241 153.747 174.218 153.64 174.165 153.548C174.111 153.455 174.03 153.381 173.932 153.336C173.317 153.09 172.656 152.972 171.992 152.992C171.198 152.435 174.417 148.008 175.613 146.59C176.81 145.172 176.594 144.068 175.531 144.068C174.798 144.068 171.043 148.322 169.888 149.75C168.732 151.179 165.668 155.149 165.565 151.979C165.462 148.809 164.162 146.418 163.347 146.013C162.532 145.608 161.665 146.56 162.109 147.441C162.498 148.442 162.741 149.493 162.831 150.561C162.943 151.412 162.904 152.275 162.717 153.113C162.375 154.672 161.91 156.203 161.324 157.691H161.242C161.242 157.691 138.73 178.89 137.1 180.399C135.646 181.757 106.387 178.789 100.517 178.181C98.5217 177.895 96.5074 177.759 94.4914 177.776C91.9432 177.887 91.4892 178.242 88.9513 178.272C82.5418 178.342 76.1472 178.894 69.8237 179.923C66.9604 180.401 64.2857 181.642 62.0916 183.51C59.8975 185.379 58.2682 187.802 57.3815 190.518C51.4699 208.648 38.0785 251.562 35.7159 275.668C33.9306 278.846 32.3189 282.116 30.8876 285.462C29.2266 289.899 29.6289 290.051 30.1861 290.152C31.6923 290.425 33.4049 282.464 34.0446 284.389C34.6842 286.313 30.7948 293.879 32.3732 294.102C34.4366 294.386 36.077 285.999 36.273 285.331C36.4691 284.662 37.4904 284.875 37.3047 285.503C37.0055 286.394 34.1065 295.844 36.1286 296.148C37.2428 296.31 37.3666 294.315 37.3666 294.315C37.3666 294.315 39.43 285.27 40.3689 285.452C41.3077 285.635 40.307 290.972 39.8324 292.755C39.3578 294.538 40.0181 295.439 40.9879 295.003C41.6482 294.7 43.2267 289.281 43.66 287.518C44.0933 285.756 45.1765 280.874 46.6312 283.7C48.0859 286.526 50.2937 288.167 51.2016 288.207C51.4062 288.184 51.599 288.101 51.7553 287.97C51.9116 287.838 52.0242 287.663 52.0785 287.468C52.1329 287.273 52.1266 287.067 52.0604 286.876C51.9942 286.684 51.8712 286.516 51.7072 286.394C50.9263 285.646 50.256 284.793 49.716 283.862C49.2347 283.137 48.8856 282.335 48.6843 281.492C48.2686 279.812 48.0266 278.095 47.9621 276.367L47.797 275.354C50.108 264.122 56.7625 231.153 66.3675 210.096L70.3086 218.057L72.0212 223.952L61.5186 249.405L106.315 248.828L99.6293 223.567L107.749 197.233C116.528 197.425 139.071 197.749 142.826 196.078C147.551 194.053 171.992 163.748 171.992 163.748C173.585 162.533 175.111 161.234 176.563 159.859C176.563 159.859 178.048 158.633 177.151 157.722Z" fill="#FFBE9D"/>
<path d="M59.5481 230.597C60.848 226.241 67.5231 204.708 67.5231 204.708C67.5231 204.708 70.8039 222.261 69.9372 224.378C69.1401 226.19 68.1983 227.937 67.1207 229.604C59.5481 240.918 60.5385 246.579 60.5385 246.579L106.294 245.212C106.397 238.932 102.611 224.327 101.827 221.998C101.043 219.668 103.653 212.041 103.653 212.041C103.653 212.041 108.811 206.886 108.626 204.232C108.528 201.848 108.227 199.477 107.728 197.142L135.584 198.155L134.707 179.62L94.6979 175.69C93.3051 179.549 80.7081 177.655 80.7081 177.655C67.1104 178.101 66.2644 180.552 60.6107 184.866C54.9571 189.181 45.5996 226.211 45.5996 226.211L59.5481 230.597Z" fill="#FF725E"/>
<path d="M86.5982 226.211C85.8052 226.35 84.9976 226.391 84.1943 226.333C82.6984 226.333 80.6453 226.231 78.3859 226.008C76.1265 225.786 74.0837 225.472 72.6291 225.188C71.8269 225.087 71.0405 224.889 70.2871 224.601C71.0937 224.601 71.8985 224.675 72.691 224.823C74.156 225.006 76.1884 225.259 78.4375 225.482C80.6866 225.705 82.7293 225.857 84.2046 225.958C85.0088 225.968 85.8103 226.053 86.5982 226.211Z" fill="#263238"/>
<path d="M89.7348 222.393C88.9416 222.774 88.1028 223.056 87.2381 223.233C83.122 224.295 78.8754 224.789 74.6205 224.702C73.74 224.73 72.8595 224.648 72 224.459C72.869 224.351 73.7449 224.307 74.6205 224.327C76.2402 224.276 78.4687 224.165 80.9241 223.881C83.3796 223.598 85.5667 223.193 87.1143 222.869C87.9738 222.643 88.85 222.484 89.7348 222.393Z" fill="#263238"/>
<path d="M105.128 205.356C105.107 206.128 105 206.896 104.808 207.645C104.54 209.053 104.127 210.977 103.601 213.084C103.075 215.191 102.569 217.135 102.115 218.452C101.933 219.206 101.663 219.936 101.311 220.63C101.368 219.86 101.513 219.099 101.744 218.361C102.136 216.781 102.58 214.958 103.075 212.962C103.57 210.967 104.045 209.144 104.437 207.564C104.576 206.803 104.808 206.062 105.128 205.356Z" fill="#263238"/>
<path d="M60.033 228.014C57.6462 227.652 55.2907 227.114 52.9866 226.403C50.6321 225.863 48.3217 225.152 46.0742 224.276C48.4598 224.644 50.8149 225.182 53.1207 225.887C55.4757 226.425 57.7862 227.136 60.033 228.014Z" fill="#263238"/>
<path d="M108.224 196.919C107.834 196.985 107.437 196.985 107.047 196.919C105.97 196.811 104.912 196.562 103.901 196.18C102.213 195.557 100.677 194.595 99.3902 193.354C98.1038 192.114 97.0959 190.624 96.4313 188.978C95.6966 187.168 95.3829 185.22 95.5131 183.276C95.5591 181.672 96.0476 180.111 96.9265 178.759C97.5447 177.848 98.4681 177.177 99.5367 176.865C99.8222 176.787 100.117 176.75 100.414 176.753C100.62 176.753 100.723 176.753 100.723 176.753C100.723 176.753 100.29 176.753 99.5986 177.027C98.6183 177.382 97.7868 178.049 97.236 178.921C95.8329 181.088 95.4409 185.048 96.9368 188.745C97.6331 190.488 98.7231 192.054 100.125 193.323C101.273 194.362 102.596 195.198 104.035 195.795C105.385 196.319 106.79 196.696 108.224 196.919Z" fill="#263238"/>
<path d="M132.273 197.79C132.015 194.684 131.932 191.567 132.025 188.452C131.944 185.34 132.041 182.225 132.314 179.124C132.572 182.226 132.655 185.34 132.562 188.452C132.649 191.568 132.552 194.686 132.273 197.79Z" fill="#263238"/>
<path d="M94.4294 176.824C94.5429 174.565 94.7802 172.013 94.7802 172.013C94.7802 172.013 100.475 171.395 100.816 165.622C101.156 159.849 100.816 146.53 100.816 146.53L90.4987 141.344L79.0469 150.186L80.8111 179.052L91.3137 179.711C92.1165 179.732 92.8953 179.441 93.4794 178.9C94.0635 178.358 94.4051 177.612 94.4294 176.824Z" fill="#FFBE9D"/>
<path d="M95.4502 161.054C95.4502 161.054 95.4502 161.166 95.3574 161.297C95.2806 161.393 95.1813 161.469 95.0681 161.518C94.9549 161.567 94.8311 161.589 94.7074 161.581C94.0471 161.581 93.4075 160.831 93.1805 159.96C93.0726 159.538 93.0726 159.096 93.1805 158.674C93.2017 158.49 93.2694 158.313 93.3775 158.161C93.4856 158.009 93.6306 157.886 93.7995 157.803C93.9383 157.747 94.0941 157.747 94.2328 157.803C94.3357 157.853 94.4191 157.935 94.4701 158.036C94.5424 158.208 94.4701 158.32 94.4701 158.309C94.4701 158.299 94.4701 158.208 94.367 158.107C94.313 158.034 94.2337 157.984 94.1443 157.965C94.0548 157.946 93.9614 157.961 93.8821 158.006C93.7555 158.081 93.6504 158.186 93.5764 158.312C93.5025 158.437 93.4621 158.579 93.4591 158.725C93.3722 159.101 93.3722 159.492 93.4591 159.869C93.6654 160.659 94.2225 161.297 94.7177 161.358C94.8146 161.371 94.9132 161.364 95.0072 161.338C95.1013 161.312 95.1889 161.267 95.2645 161.206C95.3883 161.125 95.4296 161.044 95.4502 161.054Z" fill="#EB996E"/>
<path d="M104.354 143.41C103.559 140.757 100.681 139.44 98.0602 138.711C94.0675 137.596 89.7551 137.11 85.8553 138.518C81.9555 139.926 77.2716 142.397 77.2716 146.621C74.9709 146.439 73.6503 148.414 72.7424 150.865C72.162 152.358 71.8142 153.929 71.7107 155.524C71.4219 161.054 69.8434 168.691 66.1912 172.742C64.1278 175.001 61.27 176.561 60.0939 179.377C59.0622 181.818 59.5987 184.714 58.6392 187.186C57.7829 189.363 55.8949 190.913 54.5124 192.807C53.104 194.956 52.2751 197.421 52.1037 199.97C51.9322 202.52 52.4238 205.07 53.5323 207.382C54.6488 209.634 56.2207 211.64 58.1522 213.277C60.0838 214.914 62.3346 216.147 64.7675 216.903C69.5865 218.342 74.7255 218.391 79.5723 217.044C83.2098 216.191 86.603 214.539 89.4971 212.213C92.4584 209.839 94.4923 206.533 95.254 202.854C95.9865 198.722 94.8103 194.519 93.9334 190.407C91.1891 177.412 91.9732 176.733 95.4397 164.67C95.5222 164.457 95.5635 164.234 95.6254 164.022C95.6873 163.809 95.7182 163.708 95.7595 163.546C95.858 163.069 95.9098 162.584 95.9143 162.097C95.4079 162.282 94.8584 162.321 94.3302 162.21C93.802 162.099 93.3172 161.842 92.9327 161.469C92.5472 161.072 92.2785 160.58 92.155 160.045C92.0315 159.51 92.0578 158.952 92.2311 158.431C92.4745 157.86 92.8372 157.347 93.2958 156.923C93.7543 156.499 94.2984 156.174 94.8929 155.97C96.0381 155.504 97.2658 155.261 98.3903 154.744C100.774 153.63 102.424 151.321 103.549 148.9C104.473 147.222 104.759 145.276 104.354 143.41Z" fill="#263238"/>
<path d="M95.8637 161.328C96.0817 161.644 96.2617 161.984 96.4002 162.34C96.7097 162.979 97.1224 163.88 97.5763 164.923L97.6588 165.116H97.4422L96.4105 165.207C95.6986 165.207 95.1002 165.339 94.3987 165.328C94.3376 165.315 94.281 165.286 94.2341 165.246C94.1872 165.205 94.1515 165.153 94.1305 165.095C94.0997 165.003 94.0997 164.904 94.1305 164.812C94.1543 164.675 94.1853 164.54 94.2233 164.407L94.409 163.688C94.5023 163.208 94.6476 162.739 94.8423 162.29C94.8231 162.779 94.7505 163.264 94.6257 163.738L94.4812 164.457C94.4296 164.7 94.3368 165.075 94.4812 165.045C94.9971 165.045 95.7296 164.933 96.4105 164.893L97.4422 164.802L97.3081 165.025C96.8644 164.012 96.493 163.06 96.2764 162.401C96.0863 162.065 95.9473 161.703 95.8637 161.328Z" fill="#FF725E"/>
<path d="M60.5385 246.579L106.294 245.212L126.206 321.52L122.543 409.051H98.35L101.311 323.384L83.6174 270.26L86.3411 412.444L61.89 412.798L59.3211 279.153C59.2076 275.435 57.9695 267.059 58.4338 263.372L60.5385 246.579Z" fill="#263238"/>
<path d="M89.7034 271.344C88.9545 271.39 88.2026 271.346 87.4646 271.212C86.0822 271.05 84.1942 270.766 82.1205 270.361C80.0468 269.956 78.1897 269.49 76.8485 269.115C76.1316 268.961 75.438 268.715 74.7852 268.386C74.7852 268.234 78.1485 269.024 82.2752 269.845C86.402 270.665 89.7241 271.192 89.7034 271.344Z" fill="#455A64"/>
<path d="M122.297 404.25C122.297 404.391 116.818 404.513 110.061 404.513C103.303 404.513 97.8145 404.391 97.8145 404.25C97.8145 404.108 103.293 403.986 110.061 403.986C116.829 403.986 122.297 404.098 122.297 404.25Z" fill="#455A64"/>
<path d="M86.1251 408.747C86.1251 408.899 80.8016 409.01 74.24 409.01C67.6785 409.01 62.3652 408.899 62.3652 408.747C62.3652 408.595 67.6888 408.483 74.24 408.483C80.7913 408.483 86.1251 408.605 86.1251 408.747Z" fill="#455A64"/>
<path d="M82.9677 408.382C82.8233 408.382 82.1836 377.318 81.5337 339.002C80.8837 300.686 80.502 269.602 80.6361 269.602C80.7702 269.602 81.4305 300.656 82.0702 338.992C82.7098 377.328 83.1225 408.382 82.9677 408.382Z" fill="#455A64"/>
<path d="M119.046 404.25C119.034 404.111 119.034 403.973 119.046 403.834V402.619C119.046 401.525 119.128 399.955 119.19 397.96C119.334 393.908 119.541 388.024 119.799 380.812C120.356 366.308 121.14 346.315 121.996 324.245C121.996 324.032 121.996 323.829 121.996 323.647V323.718C116.58 302.448 111.679 283.143 108.12 269.176L103.993 252.656C103.519 250.722 103.158 249.213 102.9 248.159C102.776 247.663 102.693 247.278 102.621 246.984C102.581 246.852 102.557 246.716 102.549 246.579C102.602 246.707 102.644 246.839 102.673 246.974C102.755 247.258 102.858 247.643 103.003 248.129C103.281 249.142 103.684 250.681 104.2 252.606C105.231 256.515 106.686 262.147 108.502 269.085C112.092 283.042 117.044 302.296 122.533 323.596V323.667C122.533 323.85 122.533 324.062 122.533 324.265C121.614 346.335 120.779 366.318 120.17 380.822C119.85 388.044 119.582 393.888 119.396 397.96C119.293 399.986 119.211 401.525 119.159 402.619C119.159 403.136 119.097 403.541 119.087 403.834C119.088 403.974 119.075 404.113 119.046 404.25Z" fill="#455A64"/>
<path d="M111.154 321.864C109.416 322.425 107.626 322.815 105.809 323.029C103.581 323.404 101.683 323.667 100.826 323.708V323.505C101.105 323.586 101.249 323.637 101.249 323.677C101.249 323.718 101.074 323.677 100.785 323.677H100.166L100.785 323.495C101.59 323.262 103.488 322.877 105.717 322.482C107.504 322.101 109.325 321.894 111.154 321.864Z" fill="#455A64"/>
<path d="M110.731 324.771C109.121 324.844 107.509 324.773 105.913 324.559C104.301 324.526 102.696 324.354 101.115 324.042C104.339 323.784 107.585 324.03 110.731 324.771Z" fill="#455A64"/>
<path opacity="0.2" d="M60.3418 248.19C60.8837 248.873 61.5662 249.436 62.3449 249.843C63.1235 250.249 63.9807 250.49 64.8606 250.55C66.7034 250.764 68.5674 250.73 70.4008 250.448C82.2137 249.162 94.7281 247.977 106.293 245.212C91.3235 246.032 75.5077 245.759 60.5378 246.579L60.3831 247.835" fill="black"/>
<g opacity="0.2">
<path d="M75.7656 268.902L84.2049 301.05L83.6168 270.26L75.7656 268.902Z" fill="black"/>
</g>
</svg>
