<svg width="468" height="409" viewBox="0 0 468 409" fill="none" xmlns="http://www.w3.org/2000/svg">
<g clip-path="url(#clip0_2484_21183)">
<path d="M87.9382 288.025L83.112 326.014L76.0099 282.859C41.8781 269.772 1.9701 267.23 1.9701 267.23C1.9701 267.23 -6.83669 349.652 22.2403 384.115C51.3173 418.578 81.9738 413.34 107.267 392.033C132.56 370.727 142.911 341.422 113.834 306.958C107.362 299.287 98.2266 293.066 87.9382 288.025Z" fill="#F2F2F2"/>
<path d="M78.4745 331.757L79.9077 333.456C96.4665 353.287 106.132 371.501 108.746 387.858C108.788 388.096 108.815 388.332 108.857 388.57L107.749 388.741L106.681 388.892C104.052 371.066 92.6486 352.345 78.21 335.045C77.7501 334.482 77.2832 333.912 76.7994 333.355C70.6225 326.086 63.9539 319.086 57.1933 312.524C56.6745 312.011 56.1402 311.497 55.6059 310.984C46.6377 302.368 37.5866 294.541 29.5023 287.928C28.933 287.458 28.3553 286.995 27.7846 286.541C14.055 275.405 3.36127 267.969 0.976996 266.338C0.689753 266.134 0.52703 266.026 0.490234 266L1.09821 265.099L1.09953 265.083L1.71593 264.176C1.75276 264.202 2.30025 264.561 3.28798 265.254C6.99824 267.826 16.9655 274.895 29.3242 284.885C29.8793 285.338 30.457 285.801 31.0263 286.271C37.5925 291.63 44.765 297.759 51.9914 304.447C53.8093 306.124 55.5807 307.797 57.3055 309.466C57.8482 309.972 58.3825 310.486 58.9013 310.999C66.2104 318.092 72.7348 325.011 78.4745 331.757Z" fill="#F8F8F8"/>
<path d="M29.3242 284.885C28.8242 285.435 28.3158 285.993 27.7847 286.541C26.3445 288.032 24.8289 289.448 23.2437 290.784C16.4947 296.484 8.55177 300.599 0 302.825C0.0225545 303.569 0.0451544 304.312 0.0663906 305.071C9.11924 302.797 17.5322 298.485 24.6628 292.466C26.3548 291.039 27.9703 289.525 29.5023 287.928C30.025 287.388 30.5334 286.83 31.0263 286.271C35.1181 281.683 38.4889 276.5 41.0233 270.901C40.2712 270.743 39.5345 270.587 38.8134 270.432C36.3799 275.69 33.1823 280.56 29.3242 284.885Z" fill="#F8F8F8"/>
<path d="M57.3064 309.465C56.754 309.988 56.1875 310.494 55.6068 310.983C55.4371 311.141 55.252 311.297 55.0752 311.446C47.7542 317.613 39.0493 321.92 29.7026 323.999C20.3558 326.078 10.6445 325.868 1.39648 323.387C1.47846 324.167 1.56044 324.947 1.65794 325.728C11.1428 328.131 21.0641 328.241 30.6003 326.05C40.1364 323.859 49.0128 319.429 56.4943 313.127C56.73 312.929 56.9656 312.73 57.1942 312.523C57.7762 312.019 58.3427 311.513 58.9022 310.998C67.5002 302.969 73.6018 292.635 76.4774 281.231C75.7894 280.962 75.1015 280.693 74.4051 280.431C71.6544 291.565 65.712 301.656 57.3064 309.465Z" fill="#F8F8F8"/>
<path d="M78.4748 331.758C77.9283 332.304 77.3675 332.834 76.7996 333.356C76.1897 333.913 75.5726 334.461 74.9414 334.993C65.0943 343.269 52.8293 348.135 39.9829 348.862C27.1365 349.59 14.3998 346.14 3.67969 339.03C3.8757 340.03 4.06456 341.022 4.27738 342.008C15.3287 348.802 28.2417 351.943 41.1818 350.986C54.1219 350.029 66.431 345.021 76.3605 336.675C76.9917 336.143 77.6158 335.603 78.2103 335.045C78.7936 334.525 79.3544 333.995 79.908 333.456C91.023 322.502 97.5565 307.736 98.1855 292.15C97.4837 291.676 96.7638 291.232 96.0368 290.78C95.7382 306.202 89.4387 320.9 78.4748 331.758Z" fill="#F8F8F8"/>
<path d="M268.603 96.6803V35.4427C268.603 26.0427 264.865 17.0278 258.213 10.381C251.561 3.73421 242.539 6.49064e-05 233.132 7.02477e-10H103.289C98.6314 -2.93019e-05 94.019 0.916696 89.7154 2.69783C85.4119 4.47897 81.5016 7.08964 78.2078 10.3808C74.9141 13.6719 72.3013 17.5791 70.5187 21.8792C68.7361 26.1793 67.8186 30.7881 67.8185 35.4425V76.1123H65.5371V90.4423H67.8185V105.728H65.5371V127.7H67.8185V137.254H65.5371V159.226H67.8185V371.397C67.8185 376.051 68.736 380.66 70.5185 384.96C72.3011 389.26 74.9138 393.167 78.2076 396.459C81.5013 399.75 85.4115 402.36 89.715 404.142C94.0185 405.923 98.631 406.84 103.289 406.84H233.132C237.79 406.84 242.402 405.923 246.706 404.142C251.009 402.361 254.919 399.75 258.213 396.459C261.507 393.168 264.12 389.26 265.902 384.96C267.685 380.66 268.603 376.051 268.603 371.397V140.27H270.84V96.6803H268.603Z" fill="#3F3D56"/>
<path d="M234.564 9.22073H217.616C218.395 11.1301 218.693 13.2017 218.482 15.2531C218.271 17.3045 217.559 19.2726 216.408 20.9841C215.257 22.6956 213.702 24.098 211.881 25.0678C210.06 26.0375 208.028 26.5448 205.964 26.5449H131.579C129.515 26.5448 127.483 26.0375 125.661 25.0678C123.84 24.098 122.285 22.6957 121.134 20.9841C119.983 19.2726 119.271 17.3045 119.06 15.2531C118.85 13.2017 119.147 11.1301 119.927 9.2207H104.096C97.0712 9.2207 90.3336 12.0093 85.3659 16.973C80.3982 21.9368 77.6074 28.6691 77.6074 35.6889V371.15C77.6074 374.626 78.2926 378.068 79.6238 381.279C80.955 384.49 82.9061 387.408 85.3659 389.866C87.8256 392.324 90.7457 394.273 93.9596 395.604C97.1734 396.934 100.618 397.618 104.096 397.618H234.564C241.59 397.618 248.327 394.83 253.295 389.866C258.263 384.902 261.054 378.17 261.054 371.15V35.6889C261.054 32.213 260.368 28.7712 259.037 25.5599C257.706 22.3487 255.755 19.4308 253.295 16.973C250.835 14.5153 247.915 12.5656 244.701 11.2355C241.488 9.90533 238.043 9.22072 234.564 9.22073Z" fill="#F8F8F8"/>
<path d="M237.846 125.965H100.815C99.8598 125.964 98.9443 125.584 98.2691 124.91C97.5938 124.235 97.214 123.32 97.2129 122.366V66.8084C97.214 65.8543 97.5938 64.9395 98.2691 64.2648C98.9443 63.5901 99.8598 63.2106 100.815 63.2095H237.846C238.801 63.2106 239.716 63.5901 240.392 64.2648C241.067 64.9395 241.447 65.8543 241.448 66.8084V122.366C241.447 123.32 241.067 124.235 240.392 124.91C239.716 125.584 238.801 125.964 237.846 125.965Z" fill="#7DB3D7"/>
<path d="M224.798 152.256H113.862C112.812 152.256 111.804 151.839 111.061 151.097C110.318 150.354 109.9 149.347 109.9 148.297C109.9 147.247 110.318 146.24 111.061 145.498C111.804 144.755 112.812 144.338 113.862 144.338H224.798C225.849 144.338 226.856 144.755 227.599 145.498C228.342 146.24 228.76 147.247 228.76 148.297C228.76 149.347 228.342 150.354 227.599 151.097C226.856 151.839 225.849 152.256 224.798 152.256Z" fill="#7DB3D7"/>
<path d="M224.797 172.41H113.861C112.715 172.41 111.616 171.955 110.805 171.146C109.994 170.336 109.539 169.237 109.539 168.092C109.539 166.946 109.994 165.848 110.805 165.038C111.616 164.228 112.715 163.773 113.861 163.773H224.797C225.943 163.773 227.042 164.228 227.853 165.038C228.663 165.848 229.119 166.946 229.119 168.092C229.119 169.237 228.663 170.336 227.853 171.146C227.042 171.955 225.943 172.41 224.797 172.41Z" fill="#E4E4E4"/>
<path d="M224.797 192.204H113.861C112.715 192.204 111.616 191.749 110.805 190.939C109.994 190.13 109.539 189.031 109.539 187.886C109.539 186.74 109.994 185.642 110.805 184.832C111.616 184.022 112.715 183.567 113.861 183.567H224.797C225.943 183.567 227.042 184.022 227.853 184.832C228.663 185.642 229.119 186.74 229.119 187.886C229.119 189.031 228.663 190.13 227.853 190.939C227.042 191.749 225.943 192.204 224.797 192.204Z" fill="#E4E4E4"/>
<path d="M237.846 292.236H100.815C99.8598 292.235 98.9443 291.856 98.2691 291.181C97.5938 290.506 97.214 289.592 97.2129 288.637V233.08C97.214 232.126 97.5938 231.211 98.2691 230.536C98.9443 229.862 99.8598 229.482 100.815 229.481H237.846C238.801 229.482 239.716 229.862 240.392 230.536C241.067 231.211 241.447 232.126 241.448 233.08V288.637C241.447 289.592 241.067 290.506 240.392 291.181C239.716 291.856 238.801 292.235 237.846 292.236Z" fill="#E4E4E4"/>
<path d="M224.797 318.888H113.861C112.715 318.888 111.616 318.433 110.805 317.623C109.994 316.813 109.539 315.715 109.539 314.569C109.539 313.424 109.994 312.325 110.805 311.515C111.616 310.705 112.715 310.25 113.861 310.25H224.797C225.943 310.25 227.042 310.705 227.853 311.515C228.663 312.325 229.119 313.424 229.119 314.569C229.119 315.715 228.663 316.813 227.853 317.623C227.042 318.433 225.943 318.888 224.797 318.888Z" fill="#E4E4E4"/>
<path d="M224.797 338.682H113.861C112.715 338.682 111.616 338.227 110.805 337.417C109.994 336.607 109.539 335.509 109.539 334.363C109.539 333.218 109.994 332.119 110.805 331.309C111.616 330.499 112.715 330.044 113.861 330.044H224.797C225.943 330.044 227.042 330.499 227.853 331.309C228.663 332.119 229.119 333.218 229.119 334.363C229.119 335.509 228.663 336.607 227.853 337.417C227.042 338.227 225.943 338.682 224.797 338.682Z" fill="#E4E4E4"/>
<path d="M224.797 358.476H113.861C112.715 358.476 111.616 358.021 110.805 357.211C109.994 356.401 109.539 355.303 109.539 354.158C109.539 353.012 109.994 351.914 110.805 351.104C111.616 350.294 112.715 349.839 113.861 349.839H224.797C225.943 349.839 227.042 350.294 227.853 351.104C228.663 351.914 229.119 353.012 229.119 354.158C229.119 355.303 228.663 356.401 227.853 357.211C227.042 358.021 225.943 358.476 224.797 358.476Z" fill="#E4E4E4"/>
<path d="M349.306 105.332C347.912 95.1188 346.164 84.153 338.955 76.78C336.667 74.4405 333.929 72.5882 330.906 71.3347C327.882 70.0811 324.636 69.4523 321.363 69.4862C318.09 69.52 314.858 70.2158 311.861 71.5316C308.864 72.8475 306.165 74.756 303.926 77.1422C298.678 82.7364 296.361 90.5914 296.149 98.2561C295.937 105.921 297.645 113.5 299.54 120.93C309.57 121.131 319.525 119.173 328.73 115.189C330.986 114.089 333.326 113.171 335.729 112.444C338.161 111.825 339.894 113.382 342.156 114.467L343.398 112.091C344.415 113.982 347.562 113.421 348.704 111.604C349.846 109.786 349.596 107.458 349.306 105.332Z" fill="#2F2E41"/>
<path d="M441.172 385.093L433.806 389.961L411.51 363.887L422.381 356.703L441.172 385.093Z" fill="#9E616A"/>
<path d="M447.774 390.987L424.022 406.682L423.823 406.382C422.202 403.932 421.621 400.939 422.208 398.061C422.795 395.183 424.502 392.656 426.954 391.035L441.461 381.449L447.774 390.987Z" fill="#2F2E41"/>
<path d="M346.082 398.128H337.25L333.049 364.091L346.083 364.092L346.082 398.128Z" fill="#9E616A"/>
<path d="M348.334 406.682L319.857 406.681V406.321C319.858 403.384 321.025 400.567 323.104 398.491C325.183 396.414 328.002 395.247 330.941 395.247L348.334 395.247L348.334 406.682Z" fill="#2F2E41"/>
<path d="M283.247 164.218L249.903 140.418C250.05 139.171 249.831 137.908 249.273 136.784C248.715 135.659 247.841 134.72 246.759 134.082C245.677 133.445 244.433 133.135 243.178 133.19C241.922 133.246 240.71 133.665 239.689 134.397C238.668 135.128 237.882 136.141 237.426 137.311C236.97 138.48 236.864 139.757 237.122 140.986C237.379 142.215 237.988 143.343 238.875 144.232C239.762 145.121 240.888 145.734 242.117 145.995C246.285 149.492 276.729 179.745 281.088 178.149C285.512 176.529 304.855 173.597 304.855 173.597L305.394 155.246L283.247 164.218Z" fill="#9E616A"/>
<path d="M309.445 207.522L309.76 249.398C309.76 249.398 316.976 311.444 319.638 321.926C322.299 332.408 333.102 380.91 333.102 380.91L350.664 378.079L339.354 314.667L342.773 262.11L362.485 314.783L412.539 367.063L425.225 356.836L381.657 292.86L368.35 240.451C368.35 240.451 370.005 213.343 355.095 202.904L309.445 207.522Z" fill="#2F2E41"/>
<path d="M319.534 115.438C330.165 115.438 338.782 106.826 338.782 96.2041C338.782 85.5818 330.165 76.9707 319.534 76.9707C308.903 76.9707 300.285 85.5818 300.285 96.2041C300.285 106.826 308.903 115.438 319.534 115.438Z" fill="#9E616A"/>
<path d="M324.541 214.279L317.387 230.235L338.147 239.529L345.301 223.572L324.541 214.279Z" fill="#2F2E41"/>
<path d="M350.362 133.211C348.093 128.7 346.991 123.127 342.155 121.665C338.89 120.677 325.682 122.157 322.706 123.824C317.755 126.597 322.241 131.793 319.321 136.656C316.146 141.942 312.971 147.228 309.796 152.513C307.613 156.147 305.408 159.833 304.227 163.904C303.047 167.974 302.99 172.543 305.001 176.275C306.8 179.615 310.06 181.984 311.87 185.319C313.751 188.787 310.373 204.272 308.622 207.808L309.463 208.195C321.107 208.878 332.79 208.486 344.363 207.022C347.235 206.659 350.217 206.184 352.584 204.518C356.07 202.064 357.449 197.611 358.31 193.438C362.456 173.038 359.658 151.839 350.362 133.211Z" fill="#E4E4E4"/>
<path d="M310.969 176.897C316.183 171.776 321.425 166.624 325.718 160.71C330.011 154.796 333.349 148.027 334.281 140.78C334.68 138.468 334.522 136.095 333.819 133.856C333.019 131.661 331.248 129.714 328.965 129.213C325.311 128.411 321.99 131.325 319.382 134.005C311.695 141.907 304.008 149.81 296.32 157.712C301.217 164.153 306.114 170.593 311.011 177.034L310.969 176.897Z" fill="#E4E4E4"/>
<path d="M367.809 180.842C366.188 176.421 363.254 157.093 363.254 157.093L344.888 156.555L353.867 178.684L329.365 212.957C329.365 212.957 329.41 213.033 329.493 213.167C328.205 212.961 326.884 213.147 325.704 213.703C324.524 214.259 323.539 215.158 322.878 216.282C322.218 217.406 321.912 218.704 322.002 220.004C322.091 221.305 322.571 222.548 323.38 223.571C324.188 224.595 325.287 225.351 326.532 225.74C327.777 226.129 329.111 226.133 330.359 225.753C331.607 225.372 332.71 224.624 333.526 223.606C334.341 222.588 334.829 221.348 334.928 220.048C335.018 220.099 335.123 220.118 335.226 220.101C335.328 220.083 335.422 220.03 335.489 219.951C338.216 216.533 369.43 185.262 367.809 180.842Z" fill="#9E616A"/>
<path d="M369.676 168.635C367.99 161.526 366.292 154.378 363.45 147.647C360.608 140.915 356.539 134.557 350.817 130.009C349.043 128.472 346.929 127.378 344.648 126.82C342.355 126.368 339.77 126.874 338.16 128.567C335.582 131.276 336.358 135.623 337.303 139.24C340.091 149.902 342.878 160.565 345.665 171.228C353.715 170.375 361.765 169.523 369.814 168.67L369.676 168.635Z" fill="#E4E4E4"/>
<path d="M343.597 97.6999C342.995 93.0472 342.367 88.3554 340.953 83.9744C339.539 79.5933 337.26 75.4899 333.991 73.008C328.815 69.0787 322.114 69.8365 316.31 72.0968C311.823 73.8448 307.442 76.5015 304.277 80.7728C301.112 85.044 299.335 91.1386 300.512 96.7234C306.702 95.002 312.892 93.2807 319.082 91.5593L318.405 92.1229C322.422 94.3846 325.473 99.0642 326.384 104.363C327.3 109.643 326.129 115.072 323.116 119.506C327.338 117.743 331.56 115.98 335.781 114.218C338.387 113.13 341.176 111.876 342.721 109.085C344.513 105.85 344.097 101.561 343.597 97.6999Z" fill="#2F2E41"/>
<path d="M252.715 127.852L240.333 146.422C240.037 146.868 239.635 147.233 239.163 147.484C238.69 147.736 238.163 147.866 237.627 147.862C236.99 147.862 236.368 147.674 235.838 147.321C235.308 146.968 234.894 146.467 234.649 145.879C234.562 145.681 234.497 145.474 234.455 145.262C234.287 144.419 234.461 143.545 234.937 142.83L247.32 124.26C247.556 123.906 247.859 123.602 248.213 123.366C248.567 123.129 248.963 122.964 249.381 122.88C249.798 122.797 250.228 122.796 250.646 122.879C251.063 122.961 251.461 123.125 251.815 123.361C252.169 123.597 252.473 123.9 252.71 124.253C252.947 124.607 253.112 125.003 253.196 125.42C253.279 125.837 253.28 126.267 253.197 126.684C253.115 127.102 252.951 127.498 252.715 127.852Z" fill="#7DB3D7"/>
<path d="M241.332 144.924L238.826 148.66L234.391 152.567C234.099 152.824 233.73 152.978 233.342 153.004C232.954 153.03 232.567 152.928 232.244 152.712C231.92 152.496 231.676 152.18 231.551 151.812C231.426 151.443 231.426 151.044 231.551 150.676L233.492 144.998L235.937 141.332L241.332 144.924Z" fill="#3F3D56"/>
<path d="M253.263 118.115L247.058 123.58C246.855 123.759 246.695 123.982 246.592 124.232C246.489 124.482 246.445 124.753 246.463 125.023C246.481 125.293 246.561 125.555 246.697 125.789C246.833 126.023 247.021 126.223 247.246 126.373L248.42 127.155L245.025 132.247C244.973 132.325 244.936 132.413 244.918 132.506C244.9 132.599 244.9 132.694 244.918 132.787C244.937 132.88 244.974 132.968 245.026 133.046C245.079 133.125 245.147 133.192 245.225 133.245C245.304 133.297 245.392 133.333 245.485 133.352C245.578 133.37 245.673 133.37 245.766 133.351C245.859 133.333 245.947 133.296 246.026 133.244C246.104 133.191 246.172 133.123 246.224 133.045L249.619 127.953L250.793 128.735C251.183 128.994 251.659 129.088 252.118 128.997C252.577 128.906 252.981 128.637 253.242 128.249C253.328 128.12 253.396 127.98 253.446 127.833L256.104 120.006C256.229 119.638 256.229 119.239 256.104 118.87C255.978 118.502 255.735 118.186 255.411 117.97C255.087 117.754 254.701 117.652 254.312 117.678C253.924 117.704 253.555 117.857 253.263 118.115Z" fill="#3F3D56"/>
<path d="M467.142 408.2H0.857183C0.630131 408.199 0.412598 408.109 0.252281 407.948C0.0919634 407.787 0.00195312 407.57 0.00195312 407.343C0.00195312 407.116 0.0919634 406.898 0.252281 406.738C0.412598 406.577 0.630131 406.486 0.857183 406.486H467.142C467.369 406.486 467.586 406.577 467.747 406.738C467.907 406.898 467.997 407.116 467.997 407.343C467.997 407.57 467.907 407.787 467.747 407.948C467.586 408.109 467.369 408.199 467.142 408.2Z" fill="#3F3D56"/>
<path d="M174.193 15.4959H154.743C154.361 15.4959 153.995 15.3442 153.725 15.0742C153.455 14.8042 153.303 14.4381 153.303 14.0563C153.303 13.6745 153.455 13.3083 153.725 13.0383C153.995 12.7684 154.361 12.6167 154.743 12.6167H174.193C174.575 12.6167 174.942 12.7684 175.212 13.0383C175.482 13.3083 175.634 13.6745 175.634 14.0563C175.634 14.4381 175.482 14.8042 175.212 15.0742C174.942 15.3442 174.575 15.4959 174.193 15.4959Z" fill="#F8F8F8"/>
<path d="M183.917 15.4959C184.713 15.4959 185.358 14.8513 185.358 14.0563C185.358 13.2612 184.713 12.6167 183.917 12.6167C183.122 12.6167 182.477 13.2612 182.477 14.0563C182.477 14.8513 183.122 15.4959 183.917 15.4959Z" fill="#F8F8F8"/>
</g>
<defs>
<clipPath id="clip0_2484_21183">
<rect width="468" height="409" fill="white"/>
</clipPath>
</defs>
</svg>
