<svg width="32" height="30" viewBox="0 0 32 30" fill="none" xmlns="http://www.w3.org/2000/svg">
<path d="M15.7892 7.5V2.5H10.5261M2.63135 15H5.26293M11.8419 13.75V16.25M19.7366 13.75V16.25M26.3156 15H28.9471M10.5261 22.5L5.26293 27.5V10C5.26293 9.33696 5.54018 8.70107 6.0337 8.23223C6.52721 7.76339 7.19657 7.5 7.89451 7.5H23.684C24.3819 7.5 25.0513 7.76339 25.5448 8.23223C26.0383 8.70107 26.3156 9.33696 26.3156 10V20C26.3156 20.663 26.0383 21.2989 25.5448 21.7678C25.0513 22.2366 24.3819 22.5 23.684 22.5H10.5261Z" stroke="#011C2F" stroke-width="2" stroke-linecap="round" stroke-linejoin="round"/>
</svg>
